<svg width="620" height="262" viewBox="0 0 620 262" fill="none" xmlns="http://www.w3.org/2000/svg">
<path d="M119.746 221.102L125.982 227.338L122.237 231.084L116 224.847L109.746 231.102L106 227.356L112.254 221.102L106 214.847L109.746 211.102L116 217.356L122.254 211.119L126 214.865L119.746 221.102Z" fill="#737370"/>
<circle cx="488" cy="203.102" r="17" stroke="#82D1F5" stroke-width="2"/>
<circle cx="226" cy="223.102" r="17" stroke="#82D1F5" stroke-width="2"/>
<circle cx="540" cy="145.102" r="17" stroke="#82D1F5" stroke-width="2"/>
<circle cx="540" cy="85.1016" r="17" stroke="#82D1F5" stroke-width="2"/>
<circle cx="304" cy="145.102" r="17" stroke="#82D1F5" stroke-width="2"/>
<circle cx="304" cy="65.1016" r="17" stroke="#82D1F5" stroke-width="2"/>
<path d="M460.557 83.3743C460.557 81.2266 460.835 79.2521 461.392 77.451C461.955 75.6442 462.756 73.9822 463.795 72.4652H465.568C465.159 73.0277 464.776 73.7209 464.418 74.5447C464.065 75.3629 463.756 76.2635 463.489 77.2464C463.222 78.2237 463.011 79.2351 462.858 80.2805C462.71 81.326 462.636 82.3572 462.636 83.3743C462.636 84.7266 462.767 86.0987 463.028 87.4908C463.29 88.8828 463.642 90.1754 464.085 91.3686C464.528 92.5618 465.023 93.5334 465.568 94.2834H463.795C462.756 92.7663 461.955 91.1072 461.392 89.3061C460.835 87.4993 460.557 85.522 460.557 83.3743ZM469.252 83.3743C469.252 81.2266 469.531 79.2521 470.087 77.451C470.65 75.6442 471.451 73.9822 472.491 72.4652H474.263C473.854 73.0277 473.471 73.7209 473.113 74.5447C472.761 75.3629 472.451 76.2635 472.184 77.2464C471.917 78.2237 471.707 79.2351 471.553 80.2805C471.406 81.326 471.332 82.3572 471.332 83.3743C471.332 84.7266 471.462 86.0987 471.724 87.4908C471.985 88.8828 472.337 90.1754 472.781 91.3686C473.224 92.5618 473.718 93.5334 474.263 94.2834H472.491C471.451 92.7663 470.65 91.1072 470.087 89.3061C469.531 87.4993 469.252 85.522 469.252 83.3743ZM482.891 92.3402C481.607 92.3402 480.513 91.9908 479.609 91.2919C478.706 90.5874 478.016 89.5675 477.538 88.2322C477.061 86.8913 476.822 85.272 476.822 83.3743C476.822 81.4879 477.061 79.8771 477.538 78.5419C478.021 77.201 478.714 76.1783 479.618 75.4737C480.527 74.7635 481.618 74.4084 482.891 74.4084C484.163 74.4084 485.251 74.7635 486.155 75.4737C487.064 76.1783 487.757 77.201 488.234 78.5419C488.717 79.8771 488.959 81.4879 488.959 83.3743C488.959 85.272 488.72 86.8913 488.243 88.2322C487.766 89.5675 487.075 90.5874 486.172 91.2919C485.268 91.9908 484.175 92.3402 482.891 92.3402ZM482.891 90.4652C484.163 90.4652 485.152 89.8516 485.857 88.6243C486.561 87.397 486.913 85.647 486.913 83.3743C486.913 81.8629 486.751 80.576 486.428 79.5135C486.109 78.451 485.649 77.6413 485.047 77.0845C484.45 76.5277 483.732 76.2493 482.891 76.2493C481.629 76.2493 480.643 76.8714 479.933 78.1158C479.223 79.3544 478.868 81.1072 478.868 83.3743C478.868 84.8857 479.027 86.1697 479.345 87.2266C479.663 88.2834 480.121 89.0874 480.717 89.6385C481.32 90.1896 482.044 90.4652 482.891 90.4652ZM494.622 89.7152L494.486 90.6357C494.389 91.2834 494.241 91.9766 494.043 92.7152C493.849 93.4538 493.648 94.1499 493.438 94.8033C493.227 95.4567 493.054 95.9766 492.918 96.3629H491.384C491.457 95.9993 491.554 95.5192 491.673 94.9226C491.793 94.326 491.912 93.6584 492.031 92.9197C492.156 92.1868 492.259 91.4368 492.338 90.6697L492.44 89.7152H494.622ZM510.758 92.3402C509.474 92.3402 508.38 91.9908 507.477 91.2919C506.573 90.5874 505.883 89.5675 505.406 88.2322C504.928 86.8913 504.69 85.272 504.69 83.3743C504.69 81.4879 504.928 79.8771 505.406 78.5419C505.888 77.201 506.582 76.1783 507.485 75.4737C508.394 74.7635 509.485 74.4084 510.758 74.4084C512.031 74.4084 513.119 74.7635 514.022 75.4737C514.931 76.1783 515.624 77.201 516.102 78.5419C516.585 79.8771 516.826 81.4879 516.826 83.3743C516.826 85.272 516.587 86.8913 516.11 88.2322C515.633 89.5675 514.942 90.5874 514.039 91.2919C513.136 91.9908 512.042 92.3402 510.758 92.3402ZM510.758 90.4652C512.031 90.4652 513.019 89.8516 513.724 88.6243C514.428 87.397 514.781 85.647 514.781 83.3743C514.781 81.8629 514.619 80.576 514.295 79.5135C513.977 78.451 513.516 77.6413 512.914 77.0845C512.317 76.5277 511.599 76.2493 510.758 76.2493C509.496 76.2493 508.511 76.8714 507.8 78.1158C507.09 79.3544 506.735 81.1072 506.735 83.3743C506.735 84.8857 506.894 86.1697 507.212 87.2266C507.531 88.2834 507.988 89.0874 508.585 89.6385C509.187 90.1896 509.911 90.4652 510.758 90.4652ZM522.489 89.7152L522.353 90.6357C522.256 91.2834 522.109 91.9766 521.91 92.7152C521.717 93.4538 521.515 94.1499 521.305 94.8033C521.094 95.4567 520.921 95.9766 520.785 96.3629H519.251C519.325 95.9993 519.421 95.5192 519.54 94.9226C519.66 94.326 519.779 93.6584 519.898 92.9197C520.023 92.1868 520.126 91.4368 520.205 90.6697L520.308 89.7152H522.489ZM539.068 74.647V92.1016H536.955V76.8629H536.852L532.591 79.6925V77.5447L536.955 74.647H539.068ZM546.091 89.7152L545.955 90.6357C545.858 91.2834 545.71 91.9766 545.511 92.7152C545.318 93.4538 545.116 94.1499 544.906 94.8033C544.696 95.4567 544.523 95.9766 544.386 96.3629H542.852C542.926 95.9993 543.023 95.5192 543.142 94.9226C543.261 94.326 543.381 93.6584 543.5 92.9197C543.625 92.1868 543.727 91.4368 543.807 90.6697L543.909 89.7152H546.091ZM562.227 92.3402C560.942 92.3402 559.849 91.9908 558.945 91.2919C558.042 90.5874 557.352 89.5675 556.874 88.2322C556.397 86.8913 556.158 85.272 556.158 83.3743C556.158 81.4879 556.397 79.8771 556.874 78.5419C557.357 77.201 558.05 76.1783 558.954 75.4737C559.863 74.7635 560.954 74.4084 562.227 74.4084C563.499 74.4084 564.587 74.7635 565.491 75.4737C566.4 76.1783 567.093 77.201 567.57 78.5419C568.053 79.8771 568.295 81.4879 568.295 83.3743C568.295 85.272 568.056 86.8913 567.579 88.2322C567.102 89.5675 566.411 90.5874 565.508 91.2919C564.604 91.9908 563.511 92.3402 562.227 92.3402ZM562.227 90.4652C563.499 90.4652 564.488 89.8516 565.192 88.6243C565.897 87.397 566.249 85.647 566.249 83.3743C566.249 81.8629 566.087 80.576 565.763 79.5135C565.445 78.451 564.985 77.6413 564.383 77.0845C563.786 76.5277 563.067 76.2493 562.227 76.2493C560.965 76.2493 559.979 76.8714 559.269 78.1158C558.559 79.3544 558.204 81.1072 558.204 83.3743C558.204 84.8857 558.363 86.1697 558.681 87.2266C558.999 88.2834 559.457 89.0874 560.053 89.6385C560.656 90.1896 561.38 90.4652 562.227 90.4652ZM573.958 89.7152L573.822 90.6357C573.725 91.2834 573.577 91.9766 573.379 92.7152C573.185 93.4538 572.984 94.1499 572.773 94.8033C572.563 95.4567 572.39 95.9766 572.254 96.3629H570.719C570.793 95.9993 570.89 95.5192 571.009 94.9226C571.129 94.326 571.248 93.6584 571.367 92.9197C571.492 92.1868 571.594 91.4368 571.674 90.6697L571.776 89.7152H573.958ZM590.094 92.3402C588.81 92.3402 587.716 91.9908 586.812 91.2919C585.909 90.5874 585.219 89.5675 584.741 88.2322C584.264 86.8913 584.026 85.272 584.026 83.3743C584.026 81.4879 584.264 79.8771 584.741 78.5419C585.224 77.201 585.918 76.1783 586.821 75.4737C587.73 74.7635 588.821 74.4084 590.094 74.4084C591.366 74.4084 592.455 74.7635 593.358 75.4737C594.267 76.1783 594.96 77.201 595.438 78.5419C595.92 79.8771 596.162 81.4879 596.162 83.3743C596.162 85.272 595.923 86.8913 595.446 88.2322C594.969 89.5675 594.278 90.5874 593.375 91.2919C592.472 91.9908 591.378 92.3402 590.094 92.3402ZM590.094 90.4652C591.366 90.4652 592.355 89.8516 593.06 88.6243C593.764 87.397 594.116 85.647 594.116 83.3743C594.116 81.8629 593.955 80.576 593.631 79.5135C593.313 78.451 592.852 77.6413 592.25 77.0845C591.653 76.5277 590.935 76.2493 590.094 76.2493C588.832 76.2493 587.847 76.8714 587.136 78.1158C586.426 79.3544 586.071 81.1072 586.071 83.3743C586.071 84.8857 586.23 86.1697 586.548 87.2266C586.866 88.2834 587.324 89.0874 587.92 89.6385C588.523 90.1896 589.247 90.4652 590.094 90.4652ZM603.73 83.3743C603.73 85.522 603.449 87.4993 602.886 89.3061C602.33 91.1072 601.531 92.7663 600.491 94.2834H598.719C599.128 93.7209 599.509 93.0277 599.861 92.2038C600.219 91.3857 600.531 90.4879 600.798 89.5107C601.065 88.5277 601.273 87.5135 601.42 86.468C601.574 85.4169 601.651 84.3857 601.651 83.3743C601.651 82.022 601.52 80.6499 601.259 79.2578C600.997 77.8658 600.645 76.5732 600.202 75.38C599.759 74.1868 599.264 73.2152 598.719 72.4652H600.491C601.531 73.9822 602.33 75.6442 602.886 77.451C603.449 79.2521 603.73 81.2266 603.73 83.3743ZM611.13 89.7152L610.994 90.6357C610.897 91.2834 610.749 91.9766 610.55 92.7152C610.357 93.4538 610.156 94.1499 609.945 94.8033C609.735 95.4567 609.562 95.9766 609.425 96.3629H607.891C607.965 95.9993 608.062 95.5192 608.181 94.9226C608.3 94.326 608.42 93.6584 608.539 92.9197C608.664 92.1868 608.766 91.4368 608.846 90.6697L608.948 89.7152H611.13ZM474.057 112.374C474.057 110.227 474.335 108.252 474.892 106.451C475.455 104.644 476.256 102.982 477.295 101.465H479.068C478.659 102.028 478.276 102.721 477.918 103.545C477.565 104.363 477.256 105.263 476.989 106.246C476.722 107.224 476.511 108.235 476.358 109.281C476.21 110.326 476.136 111.357 476.136 112.374C476.136 113.727 476.267 115.099 476.528 116.491C476.79 117.883 477.142 119.175 477.585 120.369C478.028 121.562 478.523 122.533 479.068 123.283H477.295C476.256 121.766 475.455 120.107 474.892 118.306C474.335 116.499 474.057 114.522 474.057 112.374ZM487.695 121.34C486.411 121.34 485.317 120.991 484.414 120.292C483.511 119.587 482.82 118.567 482.343 117.232C481.866 115.891 481.627 114.272 481.627 112.374C481.627 110.488 481.866 108.877 482.343 107.542C482.826 106.201 483.519 105.178 484.423 104.474C485.332 103.763 486.423 103.408 487.695 103.408C488.968 103.408 490.056 103.763 490.96 104.474C491.869 105.178 492.562 106.201 493.039 107.542C493.522 108.877 493.763 110.488 493.763 112.374C493.763 114.272 493.525 115.891 493.048 117.232C492.57 118.567 491.88 119.587 490.977 120.292C490.073 120.991 488.979 121.34 487.695 121.34ZM487.695 119.465C488.968 119.465 489.957 118.852 490.661 117.624C491.366 116.397 491.718 114.647 491.718 112.374C491.718 110.863 491.556 109.576 491.232 108.513C490.914 107.451 490.454 106.641 489.852 106.085C489.255 105.528 488.536 105.249 487.695 105.249C486.434 105.249 485.448 105.871 484.738 107.116C484.028 108.354 483.673 110.107 483.673 112.374C483.673 113.886 483.832 115.17 484.15 116.227C484.468 117.283 484.925 118.087 485.522 118.638C486.124 119.19 486.849 119.465 487.695 119.465ZM499.427 118.715L499.29 119.636C499.194 120.283 499.046 120.977 498.847 121.715C498.654 122.454 498.452 123.15 498.242 123.803C498.032 124.457 497.859 124.977 497.722 125.363H496.188C496.262 124.999 496.359 124.519 496.478 123.923C496.597 123.326 496.717 122.658 496.836 121.92C496.961 121.187 497.063 120.437 497.143 119.67L497.245 118.715H499.427ZM516.006 103.647V121.102H513.892V105.863H513.79L509.528 108.692V106.545L513.892 103.647H516.006ZM523.028 118.715L522.892 119.636C522.795 120.283 522.648 120.977 522.449 121.715C522.256 122.454 522.054 123.15 521.844 123.803C521.634 124.457 521.46 124.977 521.324 125.363H519.79C519.864 124.999 519.96 124.519 520.08 123.923C520.199 123.326 520.318 122.658 520.438 121.92C520.562 121.187 520.665 120.437 520.744 119.67L520.847 118.715H523.028ZM539.164 121.34C537.88 121.34 536.786 120.991 535.883 120.292C534.979 119.587 534.289 118.567 533.812 117.232C533.335 115.891 533.096 114.272 533.096 112.374C533.096 110.488 533.335 108.877 533.812 107.542C534.295 106.201 534.988 105.178 535.891 104.474C536.8 103.763 537.891 103.408 539.164 103.408C540.437 103.408 541.525 103.763 542.428 104.474C543.337 105.178 544.031 106.201 544.508 107.542C544.991 108.877 545.232 110.488 545.232 112.374C545.232 114.272 544.994 115.891 544.516 117.232C544.039 118.567 543.349 119.587 542.445 120.292C541.542 120.991 540.448 121.34 539.164 121.34ZM539.164 119.465C540.437 119.465 541.425 118.852 542.13 117.624C542.835 116.397 543.187 114.647 543.187 112.374C543.187 110.863 543.025 109.576 542.701 108.513C542.383 107.451 541.923 106.641 541.32 106.085C540.724 105.528 540.005 105.249 539.164 105.249C537.903 105.249 536.917 105.871 536.207 107.116C535.496 108.354 535.141 110.107 535.141 112.374C535.141 113.886 535.3 115.17 535.619 116.227C535.937 117.283 536.394 118.087 536.991 118.638C537.593 119.19 538.317 119.465 539.164 119.465ZM550.896 118.715L550.759 119.636C550.663 120.283 550.515 120.977 550.316 121.715C550.123 122.454 549.921 123.15 549.711 123.803C549.501 124.457 549.327 124.977 549.191 125.363H547.657C547.731 124.999 547.827 124.519 547.947 123.923C548.066 123.326 548.185 122.658 548.305 121.92C548.43 121.187 548.532 120.437 548.612 119.67L548.714 118.715H550.896ZM567.474 103.647V121.102H565.361V105.863H565.259L560.997 108.692V106.545L565.361 103.647H567.474ZM574.497 118.715L574.361 119.636C574.264 120.283 574.116 120.977 573.918 121.715C573.724 122.454 573.523 123.15 573.312 123.803C573.102 124.457 572.929 124.977 572.793 125.363H571.259C571.332 124.999 571.429 124.519 571.548 123.923C571.668 123.326 571.787 122.658 571.906 121.92C572.031 121.187 572.134 120.437 572.213 119.67L572.315 118.715H574.497ZM590.633 121.34C589.349 121.34 588.255 120.991 587.352 120.292C586.448 119.587 585.758 118.567 585.281 117.232C584.803 115.891 584.565 114.272 584.565 112.374C584.565 110.488 584.803 108.877 585.281 107.542C585.763 106.201 586.457 105.178 587.36 104.474C588.269 103.763 589.36 103.408 590.633 103.408C591.906 103.408 592.994 103.763 593.897 104.474C594.806 105.178 595.499 106.201 595.977 107.542C596.46 108.877 596.701 110.488 596.701 112.374C596.701 114.272 596.462 115.891 595.985 117.232C595.508 118.567 594.817 119.587 593.914 120.292C593.011 120.991 591.917 121.34 590.633 121.34ZM590.633 119.465C591.906 119.465 592.894 118.852 593.599 117.624C594.303 116.397 594.656 114.647 594.656 112.374C594.656 110.863 594.494 109.576 594.17 108.513C593.852 107.451 593.391 106.641 592.789 106.085C592.192 105.528 591.474 105.249 590.633 105.249C589.371 105.249 588.386 105.871 587.675 107.116C586.965 108.354 586.61 110.107 586.61 112.374C586.61 113.886 586.769 115.17 587.087 116.227C587.406 117.283 587.863 118.087 588.46 118.638C589.062 119.19 589.786 119.465 590.633 119.465ZM604.269 112.374C604.269 114.522 603.988 116.499 603.425 118.306C602.869 120.107 602.07 121.766 601.031 123.283H599.258C599.667 122.721 600.048 122.028 600.4 121.204C600.758 120.386 601.07 119.488 601.337 118.511C601.604 117.528 601.812 116.513 601.96 115.468C602.113 114.417 602.19 113.386 602.19 112.374C602.19 111.022 602.059 109.65 601.798 108.258C601.536 106.866 601.184 105.573 600.741 104.38C600.298 103.187 599.803 102.215 599.258 101.465H601.031C602.07 102.982 602.869 104.644 603.425 106.451C603.988 108.252 604.269 110.227 604.269 112.374ZM611.669 118.715L611.533 119.636C611.436 120.283 611.288 120.977 611.089 121.715C610.896 122.454 610.695 123.15 610.484 123.803C610.274 124.457 610.101 124.977 609.964 125.363H608.43C608.504 124.999 608.601 124.519 608.72 123.923C608.839 123.326 608.959 122.658 609.078 121.92C609.203 121.187 609.305 120.437 609.385 119.67L609.487 118.715H611.669ZM474.057 141.374C474.057 139.227 474.335 137.252 474.892 135.451C475.455 133.644 476.256 131.982 477.295 130.465H479.068C478.659 131.028 478.276 131.721 477.918 132.545C477.565 133.363 477.256 134.263 476.989 135.246C476.722 136.224 476.511 137.235 476.358 138.281C476.21 139.326 476.136 140.357 476.136 141.374C476.136 142.727 476.267 144.099 476.528 145.491C476.79 146.883 477.142 148.175 477.585 149.369C478.028 150.562 478.523 151.533 479.068 152.283H477.295C476.256 150.766 475.455 149.107 474.892 147.306C474.335 145.499 474.057 143.522 474.057 141.374ZM488.138 132.647V150.102H486.025V134.863H485.923L481.661 137.692V135.545L486.025 132.647H488.138ZM495.161 147.715L495.025 148.636C494.928 149.283 494.781 149.977 494.582 150.715C494.388 151.454 494.187 152.15 493.977 152.803C493.766 153.457 493.593 153.977 493.457 154.363H491.923C491.996 153.999 492.093 153.519 492.212 152.923C492.332 152.326 492.451 151.658 492.57 150.92C492.695 150.187 492.798 149.437 492.877 148.67L492.979 147.715H495.161ZM511.297 150.34C510.013 150.34 508.919 149.991 508.016 149.292C507.112 148.587 506.422 147.567 505.945 146.232C505.467 144.891 505.229 143.272 505.229 141.374C505.229 139.488 505.467 137.877 505.945 136.542C506.428 135.201 507.121 134.178 508.024 133.474C508.933 132.763 510.024 132.408 511.297 132.408C512.57 132.408 513.658 132.763 514.561 133.474C515.47 134.178 516.163 135.201 516.641 136.542C517.124 137.877 517.365 139.488 517.365 141.374C517.365 143.272 517.126 144.891 516.649 146.232C516.172 147.567 515.482 148.587 514.578 149.292C513.675 149.991 512.581 150.34 511.297 150.34ZM511.297 148.465C512.57 148.465 513.558 147.852 514.263 146.624C514.967 145.397 515.32 143.647 515.32 141.374C515.32 139.863 515.158 138.576 514.834 137.513C514.516 136.451 514.055 135.641 513.453 135.085C512.857 134.528 512.138 134.249 511.297 134.249C510.036 134.249 509.05 134.871 508.339 136.116C507.629 137.354 507.274 139.107 507.274 141.374C507.274 142.886 507.433 144.17 507.751 145.227C508.07 146.283 508.527 147.087 509.124 147.638C509.726 148.19 510.45 148.465 511.297 148.465ZM523.028 147.715L522.892 148.636C522.795 149.283 522.648 149.977 522.449 150.715C522.256 151.454 522.054 152.15 521.844 152.803C521.634 153.457 521.46 153.977 521.324 154.363H519.79C519.864 153.999 519.96 153.519 520.08 152.923C520.199 152.326 520.318 151.658 520.438 150.92C520.562 150.187 520.665 149.437 520.744 148.67L520.847 147.715H523.028ZM533.471 150.102V148.567L539.232 142.261C539.908 141.522 540.465 140.88 540.903 140.335C541.34 139.783 541.664 139.266 541.874 138.783C542.09 138.295 542.198 137.783 542.198 137.249C542.198 136.636 542.05 136.104 541.755 135.656C541.465 135.207 541.067 134.86 540.562 134.616C540.056 134.371 539.488 134.249 538.857 134.249C538.187 134.249 537.602 134.388 537.102 134.667C536.607 134.94 536.224 135.323 535.951 135.817C535.684 136.312 535.55 136.891 535.55 137.556H533.539C533.539 136.533 533.775 135.636 534.246 134.863C534.718 134.09 535.36 133.488 536.173 133.056C536.991 132.624 537.908 132.408 538.925 132.408C539.948 132.408 540.854 132.624 541.644 133.056C542.434 133.488 543.053 134.07 543.502 134.803C543.951 135.536 544.175 136.352 544.175 137.249C544.175 137.891 544.059 138.519 543.826 139.133C543.599 139.741 543.201 140.42 542.633 141.17C542.07 141.914 541.289 142.823 540.289 143.897L536.369 148.09V148.227H544.482V150.102H533.471ZM551.036 147.715L550.9 148.636C550.803 149.283 550.656 149.977 550.457 150.715C550.263 151.454 550.062 152.15 549.852 152.803C549.641 153.457 549.468 153.977 549.332 154.363H547.798C547.871 153.999 547.968 153.519 548.087 152.923C548.207 152.326 548.326 151.658 548.445 150.92C548.57 150.187 548.673 149.437 548.752 148.67L548.854 147.715H551.036ZM567.172 150.34C565.888 150.34 564.794 149.991 563.891 149.292C562.987 148.587 562.297 147.567 561.82 146.232C561.342 144.891 561.104 143.272 561.104 141.374C561.104 139.488 561.342 137.877 561.82 136.542C562.303 135.201 562.996 134.178 563.899 133.474C564.808 132.763 565.899 132.408 567.172 132.408C568.445 132.408 569.533 132.763 570.436 133.474C571.345 134.178 572.038 135.201 572.516 136.542C572.999 137.877 573.24 139.488 573.24 141.374C573.24 143.272 573.001 144.891 572.524 146.232C572.047 147.567 571.357 148.587 570.453 149.292C569.55 149.991 568.456 150.34 567.172 150.34ZM567.172 148.465C568.445 148.465 569.433 147.852 570.138 146.624C570.842 145.397 571.195 143.647 571.195 141.374C571.195 139.863 571.033 138.576 570.709 137.513C570.391 136.451 569.93 135.641 569.328 135.085C568.732 134.528 568.013 134.249 567.172 134.249C565.911 134.249 564.925 134.871 564.214 136.116C563.504 137.354 563.149 139.107 563.149 141.374C563.149 142.886 563.308 144.17 563.626 145.227C563.945 146.283 564.402 147.087 564.999 147.638C565.601 148.19 566.325 148.465 567.172 148.465ZM578.903 147.715L578.767 148.636C578.67 149.283 578.523 149.977 578.324 150.715C578.131 151.454 577.929 152.15 577.719 152.803C577.509 153.457 577.335 153.977 577.199 154.363H575.665C575.739 153.999 575.835 153.519 575.955 152.923C576.074 152.326 576.193 151.658 576.312 150.92C576.438 150.187 576.54 149.437 576.619 148.67L576.722 147.715H578.903ZM595.482 132.647V150.102H593.369V134.863H593.266L589.005 137.692V135.545L593.369 132.647H595.482ZM604.832 141.374C604.832 143.522 604.55 145.499 603.988 147.306C603.431 149.107 602.633 150.766 601.593 152.283H599.82C600.229 151.721 600.61 151.028 600.962 150.204C601.32 149.386 601.633 148.488 601.9 147.511C602.167 146.528 602.374 145.513 602.522 144.468C602.675 143.417 602.752 142.386 602.752 141.374C602.752 140.022 602.621 138.65 602.36 137.258C602.099 135.866 601.746 134.573 601.303 133.38C600.86 132.187 600.366 131.215 599.82 130.465H601.593C602.633 131.982 603.431 133.644 603.988 135.451C604.55 137.252 604.832 139.227 604.832 141.374ZM612.232 147.715L612.095 148.636C611.999 149.283 611.851 149.977 611.652 150.715C611.459 151.454 611.257 152.15 611.047 152.803C610.837 153.457 610.663 153.977 610.527 154.363H608.993C609.067 153.999 609.163 153.519 609.283 152.923C609.402 152.326 609.521 151.658 609.641 150.92C609.766 150.187 609.868 149.437 609.947 148.67L610.05 147.715H612.232ZM474.057 170.374C474.057 168.227 474.335 166.252 474.892 164.451C475.455 162.644 476.256 160.982 477.295 159.465H479.068C478.659 160.028 478.276 160.721 477.918 161.545C477.565 162.363 477.256 163.263 476.989 164.246C476.722 165.224 476.511 166.235 476.358 167.281C476.21 168.326 476.136 169.357 476.136 170.374C476.136 171.727 476.267 173.099 476.528 174.491C476.79 175.883 477.142 177.175 477.585 178.369C478.028 179.562 478.523 180.533 479.068 181.283H477.295C476.256 179.766 475.455 178.107 474.892 176.306C474.335 174.499 474.057 172.522 474.057 170.374ZM487.695 179.34C486.411 179.34 485.317 178.991 484.414 178.292C483.511 177.587 482.82 176.567 482.343 175.232C481.866 173.891 481.627 172.272 481.627 170.374C481.627 168.488 481.866 166.877 482.343 165.542C482.826 164.201 483.519 163.178 484.423 162.474C485.332 161.763 486.423 161.408 487.695 161.408C488.968 161.408 490.056 161.763 490.96 162.474C491.869 163.178 492.562 164.201 493.039 165.542C493.522 166.877 493.763 168.488 493.763 170.374C493.763 172.272 493.525 173.891 493.048 175.232C492.57 176.567 491.88 177.587 490.977 178.292C490.073 178.991 488.979 179.34 487.695 179.34ZM487.695 177.465C488.968 177.465 489.957 176.852 490.661 175.624C491.366 174.397 491.718 172.647 491.718 170.374C491.718 168.863 491.556 167.576 491.232 166.513C490.914 165.451 490.454 164.641 489.852 164.085C489.255 163.528 488.536 163.249 487.695 163.249C486.434 163.249 485.448 163.871 484.738 165.116C484.028 166.354 483.673 168.107 483.673 170.374C483.673 171.886 483.832 173.17 484.15 174.227C484.468 175.283 484.925 176.087 485.522 176.638C486.124 177.19 486.849 177.465 487.695 177.465ZM499.427 176.715L499.29 177.636C499.194 178.283 499.046 178.977 498.847 179.715C498.654 180.454 498.452 181.15 498.242 181.803C498.032 182.457 497.859 182.977 497.722 183.363H496.188C496.262 182.999 496.359 182.519 496.478 181.923C496.597 181.326 496.717 180.658 496.836 179.92C496.961 179.187 497.063 178.437 497.143 177.67L497.245 176.715H499.427ZM516.006 161.647V179.102H513.892V163.863H513.79L509.528 166.692V164.545L513.892 161.647H516.006ZM523.028 176.715L522.892 177.636C522.795 178.283 522.648 178.977 522.449 179.715C522.256 180.454 522.054 181.15 521.844 181.803C521.634 182.457 521.46 182.977 521.324 183.363H519.79C519.864 182.999 519.96 182.519 520.08 181.923C520.199 181.326 520.318 180.658 520.438 179.92C520.562 179.187 520.665 178.437 520.744 177.67L520.847 176.715H523.028ZM539.164 179.34C537.88 179.34 536.786 178.991 535.883 178.292C534.979 177.587 534.289 176.567 533.812 175.232C533.335 173.891 533.096 172.272 533.096 170.374C533.096 168.488 533.335 166.877 533.812 165.542C534.295 164.201 534.988 163.178 535.891 162.474C536.8 161.763 537.891 161.408 539.164 161.408C540.437 161.408 541.525 161.763 542.428 162.474C543.337 163.178 544.031 164.201 544.508 165.542C544.991 166.877 545.232 168.488 545.232 170.374C545.232 172.272 544.994 173.891 544.516 175.232C544.039 176.567 543.349 177.587 542.445 178.292C541.542 178.991 540.448 179.34 539.164 179.34ZM539.164 177.465C540.437 177.465 541.425 176.852 542.13 175.624C542.835 174.397 543.187 172.647 543.187 170.374C543.187 168.863 543.025 167.576 542.701 166.513C542.383 165.451 541.923 164.641 541.32 164.085C540.724 163.528 540.005 163.249 539.164 163.249C537.903 163.249 536.917 163.871 536.207 165.116C535.496 166.354 535.141 168.107 535.141 170.374C535.141 171.886 535.3 173.17 535.619 174.227C535.937 175.283 536.394 176.087 536.991 176.638C537.593 177.19 538.317 177.465 539.164 177.465ZM550.896 176.715L550.759 177.636C550.663 178.283 550.515 178.977 550.316 179.715C550.123 180.454 549.921 181.15 549.711 181.803C549.501 182.457 549.327 182.977 549.191 183.363H547.657C547.731 182.999 547.827 182.519 547.947 181.923C548.066 181.326 548.185 180.658 548.305 179.92C548.43 179.187 548.532 178.437 548.612 177.67L548.714 176.715H550.896ZM567.474 161.647V179.102H565.361V163.863H565.259L560.997 166.692V164.545L565.361 161.647H567.474ZM574.497 176.715L574.361 177.636C574.264 178.283 574.116 178.977 573.918 179.715C573.724 180.454 573.523 181.15 573.312 181.803C573.102 182.457 572.929 182.977 572.793 183.363H571.259C571.332 182.999 571.429 182.519 571.548 181.923C571.668 181.326 571.787 180.658 571.906 179.92C572.031 179.187 572.134 178.437 572.213 177.67L572.315 176.715H574.497ZM590.633 179.34C589.349 179.34 588.255 178.991 587.352 178.292C586.448 177.587 585.758 176.567 585.281 175.232C584.803 173.891 584.565 172.272 584.565 170.374C584.565 168.488 584.803 166.877 585.281 165.542C585.763 164.201 586.457 163.178 587.36 162.474C588.269 161.763 589.36 161.408 590.633 161.408C591.906 161.408 592.994 161.763 593.897 162.474C594.806 163.178 595.499 164.201 595.977 165.542C596.46 166.877 596.701 168.488 596.701 170.374C596.701 172.272 596.462 173.891 595.985 175.232C595.508 176.567 594.817 177.587 593.914 178.292C593.011 178.991 591.917 179.34 590.633 179.34ZM590.633 177.465C591.906 177.465 592.894 176.852 593.599 175.624C594.303 174.397 594.656 172.647 594.656 170.374C594.656 168.863 594.494 167.576 594.17 166.513C593.852 165.451 593.391 164.641 592.789 164.085C592.192 163.528 591.474 163.249 590.633 163.249C589.371 163.249 588.386 163.871 587.675 165.116C586.965 166.354 586.61 168.107 586.61 170.374C586.61 171.886 586.769 173.17 587.087 174.227C587.406 175.283 587.863 176.087 588.46 176.638C589.062 177.19 589.786 177.465 590.633 177.465ZM604.269 170.374C604.269 172.522 603.988 174.499 603.425 176.306C602.869 178.107 602.07 179.766 601.031 181.283H599.258C599.667 180.721 600.048 180.028 600.4 179.204C600.758 178.386 601.07 177.488 601.337 176.511C601.604 175.528 601.812 174.513 601.96 173.468C602.113 172.417 602.19 171.386 602.19 170.374C602.19 169.022 602.059 167.65 601.798 166.258C601.536 164.866 601.184 163.573 600.741 162.38C600.298 161.187 599.803 160.215 599.258 159.465H601.031C602.07 160.982 602.869 162.644 603.425 164.451C603.988 166.252 604.269 168.227 604.269 170.374ZM611.669 176.715L611.533 177.636C611.436 178.283 611.288 178.977 611.089 179.715C610.896 180.454 610.695 181.15 610.484 181.803C610.274 182.457 610.101 182.977 609.964 183.363H608.43C608.504 182.999 608.601 182.519 608.72 181.923C608.839 181.326 608.959 180.658 609.078 179.92C609.203 179.187 609.305 178.437 609.385 177.67L609.487 176.715H611.669ZM474.057 199.374C474.057 197.227 474.335 195.252 474.892 193.451C475.455 191.644 476.256 189.982 477.295 188.465H479.068C478.659 189.028 478.276 189.721 477.918 190.545C477.565 191.363 477.256 192.263 476.989 193.246C476.722 194.224 476.511 195.235 476.358 196.281C476.21 197.326 476.136 198.357 476.136 199.374C476.136 200.727 476.267 202.099 476.528 203.491C476.79 204.883 477.142 206.175 477.585 207.369C478.028 208.562 478.523 209.533 479.068 210.283H477.295C476.256 208.766 475.455 207.107 474.892 205.306C474.335 203.499 474.057 201.522 474.057 199.374ZM487.695 208.34C486.411 208.34 485.317 207.991 484.414 207.292C483.511 206.587 482.82 205.567 482.343 204.232C481.866 202.891 481.627 201.272 481.627 199.374C481.627 197.488 481.866 195.877 482.343 194.542C482.826 193.201 483.519 192.178 484.423 191.474C485.332 190.763 486.423 190.408 487.695 190.408C488.968 190.408 490.056 190.763 490.96 191.474C491.869 192.178 492.562 193.201 493.039 194.542C493.522 195.877 493.763 197.488 493.763 199.374C493.763 201.272 493.525 202.891 493.048 204.232C492.57 205.567 491.88 206.587 490.977 207.292C490.073 207.991 488.979 208.34 487.695 208.34ZM487.695 206.465C488.968 206.465 489.957 205.852 490.661 204.624C491.366 203.397 491.718 201.647 491.718 199.374C491.718 197.863 491.556 196.576 491.232 195.513C490.914 194.451 490.454 193.641 489.852 193.085C489.255 192.528 488.536 192.249 487.695 192.249C486.434 192.249 485.448 192.871 484.738 194.116C484.028 195.354 483.673 197.107 483.673 199.374C483.673 200.886 483.832 202.17 484.15 203.227C484.468 204.283 484.925 205.087 485.522 205.638C486.124 206.19 486.849 206.465 487.695 206.465ZM499.427 205.715L499.29 206.636C499.194 207.283 499.046 207.977 498.847 208.715C498.654 209.454 498.452 210.15 498.242 210.803C498.032 211.457 497.859 211.977 497.722 212.363H496.188C496.262 211.999 496.359 211.519 496.478 210.923C496.597 210.326 496.717 209.658 496.836 208.92C496.961 208.187 497.063 207.437 497.143 206.67L497.245 205.715H499.427ZM515.562 208.34C514.278 208.34 513.185 207.991 512.281 207.292C511.378 206.587 510.688 205.567 510.21 204.232C509.733 202.891 509.494 201.272 509.494 199.374C509.494 197.488 509.733 195.877 510.21 194.542C510.693 193.201 511.386 192.178 512.29 191.474C513.199 190.763 514.29 190.408 515.562 190.408C516.835 190.408 517.923 190.763 518.827 191.474C519.736 192.178 520.429 193.201 520.906 194.542C521.389 195.877 521.631 197.488 521.631 199.374C521.631 201.272 521.392 202.891 520.915 204.232C520.438 205.567 519.747 206.587 518.844 207.292C517.94 207.991 516.847 208.34 515.562 208.34ZM515.562 206.465C516.835 206.465 517.824 205.852 518.528 204.624C519.233 203.397 519.585 201.647 519.585 199.374C519.585 197.863 519.423 196.576 519.099 195.513C518.781 194.451 518.321 193.641 517.719 193.085C517.122 192.528 516.403 192.249 515.562 192.249C514.301 192.249 513.315 192.871 512.605 194.116C511.895 195.354 511.54 197.107 511.54 199.374C511.54 200.886 511.699 202.17 512.017 203.227C512.335 204.283 512.793 205.087 513.389 205.638C513.991 206.19 514.716 206.465 515.562 206.465ZM527.294 205.715L527.158 206.636C527.061 207.283 526.913 207.977 526.714 208.715C526.521 209.454 526.32 210.15 526.109 210.803C525.899 211.457 525.726 211.977 525.589 212.363H524.055C524.129 211.999 524.226 211.519 524.345 210.923C524.464 210.326 524.584 209.658 524.703 208.92C524.828 208.187 524.93 207.437 525.01 206.67L525.112 205.715H527.294ZM543.873 190.647V208.102H541.759V192.863H541.657L537.396 195.692V193.545L541.759 190.647H543.873ZM550.896 205.715L550.759 206.636C550.663 207.283 550.515 207.977 550.316 208.715C550.123 209.454 549.921 210.15 549.711 210.803C549.501 211.457 549.327 211.977 549.191 212.363H547.657C547.731 211.999 547.827 211.519 547.947 210.923C548.066 210.326 548.185 209.658 548.305 208.92C548.43 208.187 548.532 207.437 548.612 206.67L548.714 205.715H550.896ZM567.031 208.34C565.747 208.34 564.653 207.991 563.75 207.292C562.847 206.587 562.156 205.567 561.679 204.232C561.202 202.891 560.963 201.272 560.963 199.374C560.963 197.488 561.202 195.877 561.679 194.542C562.162 193.201 562.855 192.178 563.759 191.474C564.668 190.763 565.759 190.408 567.031 190.408C568.304 190.408 569.392 190.763 570.295 191.474C571.205 192.178 571.898 193.201 572.375 194.542C572.858 195.877 573.099 197.488 573.099 199.374C573.099 201.272 572.861 202.891 572.384 204.232C571.906 205.567 571.216 206.587 570.312 207.292C569.409 207.991 568.315 208.34 567.031 208.34ZM567.031 206.465C568.304 206.465 569.293 205.852 569.997 204.624C570.702 203.397 571.054 201.647 571.054 199.374C571.054 197.863 570.892 196.576 570.568 195.513C570.25 194.451 569.79 193.641 569.188 193.085C568.591 192.528 567.872 192.249 567.031 192.249C565.77 192.249 564.784 192.871 564.074 194.116C563.364 195.354 563.009 197.107 563.009 199.374C563.009 200.886 563.168 202.17 563.486 203.227C563.804 204.283 564.261 205.087 564.858 205.638C565.46 206.19 566.185 206.465 567.031 206.465ZM578.763 205.715L578.626 206.636C578.53 207.283 578.382 207.977 578.183 208.715C577.99 209.454 577.788 210.15 577.578 210.803C577.368 211.457 577.195 211.977 577.058 212.363H575.524C575.598 211.999 575.695 211.519 575.814 210.923C575.933 210.326 576.053 209.658 576.172 208.92C576.297 208.187 576.399 207.437 576.479 206.67L576.581 205.715H578.763ZM594.898 208.34C593.614 208.34 592.521 207.991 591.617 207.292C590.714 206.587 590.023 205.567 589.546 204.232C589.069 202.891 588.83 201.272 588.83 199.374C588.83 197.488 589.069 195.877 589.546 194.542C590.029 193.201 590.722 192.178 591.626 191.474C592.535 190.763 593.626 190.408 594.898 190.408C596.171 190.408 597.259 190.763 598.163 191.474C599.072 192.178 599.765 193.201 600.242 194.542C600.725 195.877 600.967 197.488 600.967 199.374C600.967 201.272 600.728 202.891 600.251 204.232C599.773 205.567 599.083 206.587 598.18 207.292C597.276 207.991 596.183 208.34 594.898 208.34ZM594.898 206.465C596.171 206.465 597.16 205.852 597.864 204.624C598.569 203.397 598.921 201.647 598.921 199.374C598.921 197.863 598.759 196.576 598.435 195.513C598.117 194.451 597.657 193.641 597.055 193.085C596.458 192.528 595.739 192.249 594.898 192.249C593.637 192.249 592.651 192.871 591.941 194.116C591.231 195.354 590.876 197.107 590.876 199.374C590.876 200.886 591.035 202.17 591.353 203.227C591.671 204.283 592.129 205.087 592.725 205.638C593.327 206.19 594.052 206.465 594.898 206.465ZM608.535 199.374C608.535 201.522 608.254 203.499 607.691 205.306C607.134 207.107 606.336 208.766 605.296 210.283H603.523C603.933 209.721 604.313 209.028 604.665 208.204C605.023 207.386 605.336 206.488 605.603 205.511C605.87 204.528 606.077 203.513 606.225 202.468C606.379 201.417 606.455 200.386 606.455 199.374C606.455 198.022 606.325 196.65 606.063 195.258C605.802 193.866 605.45 192.573 605.006 191.38C604.563 190.187 604.069 189.215 603.523 188.465H605.296C606.336 189.982 607.134 191.644 607.691 193.451C608.254 195.252 608.535 197.227 608.535 199.374ZM617.23 199.374C617.23 201.522 616.949 203.499 616.386 205.306C615.83 207.107 615.031 208.766 613.991 210.283H612.219C612.628 209.721 613.009 209.028 613.361 208.204C613.719 207.386 614.031 206.488 614.298 205.511C614.565 204.528 614.773 203.513 614.92 202.468C615.074 201.417 615.151 200.386 615.151 199.374C615.151 198.022 615.02 196.65 614.759 195.258C614.497 193.866 614.145 192.573 613.702 191.38C613.259 190.187 612.764 189.215 612.219 188.465H613.991C615.031 189.982 615.83 191.644 616.386 193.451C616.949 195.252 617.23 197.227 617.23 199.374Z" fill="#FA8F00"/>
<rect x="205" y="46.1016" width="198" height="198" stroke="#737370" stroke-width="2"/>
<line x1="204" y1="84.1016" x2="404.01" y2="84.1016" stroke="#737370" stroke-width="2"/>
<line x1="243" y1="245.117" x2="243" y2="45.1072" stroke="#737370" stroke-width="2"/>
<line x1="363" y1="245.117" x2="363" y2="45.1072" stroke="#737370" stroke-width="2"/>
<line x1="323" y1="245.117" x2="323" y2="45.1072" stroke="#737370" stroke-width="2"/>
<line x1="283" y1="245.117" x2="283" y2="45.1072" stroke="#737370" stroke-width="2"/>
<line x1="204" y1="204.102" x2="404.01" y2="204.102" stroke="#737370" stroke-width="2"/>
<line x1="204" y1="164.102" x2="404.01" y2="164.102" stroke="#737370" stroke-width="2"/>
<line x1="204" y1="124.102" x2="404.01" y2="124.102" stroke="#737370" stroke-width="2"/>
<path d="M222.931 74.4084C222.102 74.4084 221.349 74.2521 220.673 73.9396C219.997 73.6214 219.46 73.1641 219.062 72.5675C218.664 71.9652 218.466 71.2379 218.466 70.3857C218.466 69.6357 218.613 69.0277 218.909 68.5618C219.204 68.0902 219.599 67.7209 220.093 67.4538C220.588 67.1868 221.133 66.9879 221.73 66.8572C222.332 66.7209 222.937 66.6129 223.545 66.5334C224.341 66.4311 224.985 66.3544 225.48 66.3033C225.98 66.2464 226.343 66.1527 226.571 66.022C226.804 65.8913 226.92 65.6641 226.92 65.3402V65.272C226.92 64.4311 226.69 63.7777 226.23 63.3118C225.775 62.8459 225.085 62.6129 224.159 62.6129C223.199 62.6129 222.446 62.8232 221.9 63.2436C221.355 63.6641 220.971 64.1129 220.75 64.5902L218.841 63.9084C219.181 63.1129 219.636 62.4936 220.204 62.0504C220.778 61.6016 221.403 61.2891 222.079 61.1129C222.761 60.9311 223.431 60.8402 224.091 60.8402C224.511 60.8402 224.994 60.8913 225.539 60.9936C226.091 61.0902 226.622 61.2919 227.133 61.5987C227.65 61.9055 228.079 62.3686 228.42 62.9879C228.761 63.6072 228.931 64.4368 228.931 65.4766V74.1016H226.92V72.3288H226.818C226.681 72.6129 226.454 72.9169 226.136 73.2408C225.818 73.5646 225.395 73.8402 224.866 74.0675C224.338 74.2947 223.693 74.4084 222.931 74.4084ZM223.238 72.6016C224.034 72.6016 224.704 72.4453 225.25 72.1328C225.801 71.8203 226.216 71.4169 226.494 70.9226C226.778 70.4283 226.92 69.9084 226.92 69.3629V67.522C226.835 67.6243 226.647 67.718 226.358 67.8033C226.074 67.8828 225.744 67.9538 225.369 68.0163C225 68.0732 224.639 68.1243 224.287 68.1697C223.94 68.2095 223.659 68.2436 223.443 68.272C222.92 68.3402 222.431 68.451 221.977 68.6044C221.528 68.7521 221.164 68.9766 220.886 69.2777C220.613 69.5732 220.477 69.9766 220.477 70.4879C220.477 71.1868 220.735 71.7152 221.252 72.0732C221.775 72.4254 222.437 72.6016 223.238 72.6016Z" fill="#737370"/>
<path d="M380.457 235.011C380.116 235.011 379.812 234.982 379.545 234.925C379.278 234.874 379.093 234.823 378.991 234.772L379.502 232.999C379.991 233.124 380.423 233.17 380.798 233.136C381.173 233.102 381.505 232.934 381.795 232.633C382.09 232.337 382.36 231.857 382.604 231.192L382.979 230.17L378.138 217.011H380.32L383.934 227.442H384.07L387.684 217.011H389.866L384.309 232.011C384.059 232.687 383.749 233.246 383.38 233.69C383.011 234.138 382.582 234.471 382.093 234.687C381.61 234.903 381.065 235.011 380.457 235.011Z" fill="#737370"/>
<path d="M340.86 219.011L343.997 224.363L347.133 219.011H349.451L345.224 225.556L349.451 232.102H347.133L343.997 227.022L340.86 232.102H338.542L342.701 225.556L338.542 219.011H340.86Z" fill="#737370"/>
<path d="M299.057 232.102L295.068 219.011H297.182L300.011 229.033H300.148L302.943 219.011H305.091L307.852 228.999H307.989L310.818 219.011H312.932L308.943 232.102H306.966L304.102 222.045H303.898L301.034 232.102H299.057Z" fill="#737370"/>
<path d="M269.866 219.011L265.025 232.102H262.979L258.138 219.011H260.32L263.934 229.442H264.07L267.684 219.011H269.866Z" fill="#737370"/>
<path d="M227.118 226.749V219.011H229.13V232.102H227.118V229.886H226.982C226.675 230.55 226.198 231.116 225.55 231.582C224.902 232.042 224.084 232.272 223.096 232.272C222.277 232.272 221.55 232.093 220.914 231.735C220.277 231.371 219.777 230.826 219.414 230.099C219.05 229.366 218.868 228.442 218.868 227.329V219.011H220.88V227.192C220.88 228.147 221.147 228.908 221.681 229.477C222.221 230.045 222.908 230.329 223.743 230.329C224.243 230.329 224.752 230.201 225.269 229.945C225.792 229.69 226.229 229.298 226.581 228.769C226.939 228.241 227.118 227.567 227.118 226.749Z" fill="#737370"/>
<path d="M387.175 179.011V180.715H380.391V179.011H387.175ZM382.368 175.874H384.379V188.352C384.379 188.92 384.462 189.346 384.626 189.63C384.797 189.908 385.013 190.096 385.274 190.192C385.541 190.283 385.822 190.329 386.118 190.329C386.339 190.329 386.521 190.317 386.663 190.295C386.805 190.266 386.919 190.244 387.004 190.227L387.413 192.033C387.277 192.085 387.087 192.136 386.842 192.187C386.598 192.244 386.288 192.272 385.913 192.272C385.345 192.272 384.788 192.15 384.243 191.906C383.703 191.661 383.254 191.289 382.896 190.789C382.544 190.289 382.368 189.658 382.368 188.897V175.874Z" fill="#737370"/>
<path d="M348.844 181.942L347.037 182.454C346.924 182.153 346.756 181.86 346.534 181.576C346.319 181.286 346.023 181.048 345.648 180.86C345.273 180.673 344.793 180.579 344.208 180.579C343.407 180.579 342.739 180.763 342.205 181.133C341.676 181.496 341.412 181.96 341.412 182.522C341.412 183.022 341.594 183.417 341.958 183.707C342.321 183.996 342.89 184.238 343.662 184.431L345.605 184.908C346.776 185.192 347.648 185.627 348.222 186.212C348.796 186.792 349.083 187.539 349.083 188.454C349.083 189.204 348.867 189.874 348.435 190.465C348.009 191.056 347.412 191.522 346.645 191.863C345.878 192.204 344.986 192.374 343.969 192.374C342.634 192.374 341.529 192.085 340.654 191.505C339.779 190.925 339.225 190.079 338.992 188.965L340.901 188.488C341.083 189.192 341.426 189.721 341.932 190.073C342.444 190.425 343.111 190.602 343.935 190.602C344.873 190.602 345.617 190.403 346.168 190.005C346.725 189.602 347.003 189.119 347.003 188.556C347.003 188.102 346.844 187.721 346.526 187.414C346.208 187.102 345.719 186.869 345.06 186.715L342.878 186.204C341.679 185.92 340.799 185.479 340.236 184.883C339.679 184.281 339.401 183.528 339.401 182.624C339.401 181.886 339.608 181.232 340.023 180.664C340.444 180.096 341.015 179.65 341.736 179.326C342.463 179.002 343.287 178.84 344.208 178.84C345.503 178.84 346.52 179.124 347.259 179.692C348.003 180.261 348.532 181.011 348.844 181.942Z" fill="#737370"/>
<path d="M301.376 192.102V179.011H303.319V180.988H303.456C303.694 180.34 304.126 179.815 304.751 179.411C305.376 179.008 306.081 178.806 306.865 178.806C307.012 178.806 307.197 178.809 307.419 178.815C307.64 178.82 307.808 178.829 307.922 178.84V180.886C307.853 180.869 307.697 180.843 307.453 180.809C307.214 180.769 306.961 180.749 306.694 180.749C306.058 180.749 305.49 180.883 304.99 181.15C304.495 181.411 304.103 181.775 303.814 182.241C303.529 182.701 303.387 183.227 303.387 183.817V192.102H301.376Z" fill="#737370"/>
<path d="M267.46 199.011V192.09H267.29C267.142 192.329 266.932 192.63 266.659 192.994C266.386 193.352 265.997 193.673 265.491 193.957C264.986 194.235 264.313 194.374 263.472 194.374C262.381 194.374 261.418 194.099 260.582 193.548C259.747 192.991 259.094 192.207 258.622 191.195C258.151 190.178 257.915 188.977 257.915 187.59C257.915 186.215 258.151 185.022 258.622 184.011C259.094 182.999 259.75 182.218 260.591 181.667C261.432 181.116 262.403 180.84 263.506 180.84C264.358 180.84 265.031 180.982 265.526 181.266C266.026 181.545 266.406 181.863 266.668 182.221C266.935 182.573 267.142 182.863 267.29 183.09H267.528V181.011H269.472V199.011H267.46ZM263.744 192.567C264.551 192.567 265.233 192.357 265.79 191.937C266.347 191.511 266.77 190.923 267.06 190.173C267.349 189.417 267.494 188.545 267.494 187.556C267.494 186.579 267.352 185.724 267.068 184.991C266.784 184.252 266.364 183.678 265.807 183.269C265.25 182.854 264.563 182.647 263.744 182.647C262.892 182.647 262.182 182.866 261.614 183.303C261.051 183.735 260.628 184.323 260.344 185.067C260.065 185.806 259.926 186.636 259.926 187.556C259.926 188.488 260.068 189.335 260.352 190.096C260.642 190.852 261.068 191.454 261.631 191.903C262.199 192.346 262.903 192.567 263.744 192.567Z" fill="#737370"/>
<path d="M218.528 197.011V179.011H220.472V181.09H220.71C220.858 180.863 221.063 180.573 221.324 180.221C221.591 179.863 221.972 179.545 222.466 179.266C222.966 178.982 223.642 178.84 224.494 178.84C225.597 178.84 226.568 179.116 227.409 179.667C228.25 180.218 228.906 180.999 229.378 182.011C229.849 183.022 230.085 184.215 230.085 185.59C230.085 186.977 229.849 188.178 229.378 189.195C228.906 190.207 228.253 190.991 227.418 191.548C226.582 192.099 225.619 192.374 224.528 192.374C223.688 192.374 223.014 192.235 222.509 191.957C222.003 191.673 221.614 191.352 221.341 190.994C221.068 190.63 220.858 190.329 220.71 190.09H220.54V197.011H218.528ZM220.506 185.556C220.506 186.545 220.651 187.417 220.94 188.173C221.23 188.923 221.653 189.511 222.21 189.937C222.767 190.357 223.449 190.567 224.256 190.567C225.097 190.567 225.798 190.346 226.361 189.903C226.929 189.454 227.355 188.852 227.639 188.096C227.929 187.335 228.074 186.488 228.074 185.556C228.074 184.636 227.932 183.806 227.648 183.067C227.369 182.323 226.946 181.735 226.378 181.303C225.815 180.866 225.108 180.647 224.256 180.647C223.438 180.647 222.75 180.854 222.193 181.269C221.636 181.678 221.216 182.252 220.932 182.991C220.648 183.724 220.506 184.579 220.506 185.556Z" fill="#737370"/>
<path d="M383.999 152.374C382.817 152.374 381.78 152.093 380.888 151.531C380.002 150.968 379.309 150.181 378.809 149.17C378.314 148.158 378.067 146.977 378.067 145.624C378.067 144.261 378.314 143.07 378.809 142.053C379.309 141.036 380.002 140.246 380.888 139.684C381.78 139.121 382.817 138.84 383.999 138.84C385.181 138.84 386.215 139.121 387.101 139.684C387.993 140.246 388.686 141.036 389.181 142.053C389.681 143.07 389.931 144.261 389.931 145.624C389.931 146.977 389.681 148.158 389.181 149.17C388.686 150.181 387.993 150.968 387.101 151.531C386.215 152.093 385.181 152.374 383.999 152.374ZM383.999 150.567C384.897 150.567 385.635 150.337 386.215 149.877C386.794 149.417 387.223 148.812 387.502 148.062C387.78 147.312 387.919 146.499 387.919 145.624C387.919 144.749 387.78 143.934 387.502 143.178C387.223 142.423 386.794 141.812 386.215 141.346C385.635 140.88 384.897 140.647 383.999 140.647C383.101 140.647 382.363 140.88 381.783 141.346C381.203 141.812 380.775 142.423 380.496 143.178C380.218 143.934 380.078 144.749 380.078 145.624C380.078 146.499 380.218 147.312 380.496 148.062C380.775 148.812 381.203 149.417 381.783 149.877C382.363 150.337 383.101 150.567 383.999 150.567Z" fill="#737370"/>
<path d="M340.833 144.227V152.102H338.821V139.011H340.765V141.056H340.935C341.242 140.391 341.708 139.857 342.333 139.454C342.958 139.045 343.765 138.84 344.753 138.84C345.64 138.84 346.415 139.022 347.08 139.386C347.745 139.744 348.262 140.289 348.631 141.022C349 141.749 349.185 142.67 349.185 143.783V152.102H347.174V143.92C347.174 142.891 346.907 142.09 346.373 141.516C345.838 140.937 345.105 140.647 344.174 140.647C343.532 140.647 342.958 140.786 342.452 141.065C341.952 141.343 341.557 141.749 341.267 142.283C340.978 142.817 340.833 143.465 340.833 144.227Z" fill="#737370"/>
<path d="M295.411 152.102V139.011H297.354V141.056H297.525C297.798 140.357 298.238 139.815 298.846 139.428C299.454 139.036 300.184 138.84 301.036 138.84C301.9 138.84 302.619 139.036 303.192 139.428C303.772 139.815 304.224 140.357 304.548 141.056H304.684C305.019 140.38 305.522 139.843 306.192 139.445C306.863 139.042 307.667 138.84 308.604 138.84C309.775 138.84 310.732 139.207 311.477 139.94C312.221 140.667 312.593 141.8 312.593 143.34V152.102H310.582V143.34C310.582 142.374 310.317 141.684 309.789 141.269C309.261 140.854 308.638 140.647 307.923 140.647C307.002 140.647 306.289 140.925 305.783 141.482C305.278 142.033 305.025 142.732 305.025 143.579V152.102H302.979V143.136C302.979 142.391 302.738 141.792 302.255 141.337C301.772 140.877 301.15 140.647 300.388 140.647C299.866 140.647 299.377 140.786 298.923 141.065C298.474 141.343 298.11 141.729 297.832 142.224C297.559 142.712 297.423 143.278 297.423 143.92V152.102H295.411Z" fill="#737370"/>
<path d="M265.005 134.647V152.102H262.993V134.647H265.005Z" fill="#737370"/>
<path d="M221.189 147.329L221.154 144.84H221.564L227.291 139.011H229.779L223.677 145.181H223.507L221.189 147.329ZM219.314 152.102V134.647H221.325V152.102H219.314ZM227.632 152.102L222.518 145.624L223.95 144.227L230.189 152.102H227.632Z" fill="#737370"/>
<path d="M382.993 101.011H385.005V115.056C385.005 115.863 384.865 116.562 384.587 117.153C384.314 117.744 383.9 118.201 383.343 118.525C382.792 118.849 382.096 119.011 381.255 119.011C381.186 119.011 381.118 119.011 381.05 119.011C380.982 119.011 380.914 119.011 380.846 119.011V117.136C380.914 117.136 380.976 117.136 381.033 117.136C381.09 117.136 381.152 117.136 381.221 117.136C381.834 117.136 382.283 116.954 382.567 116.59C382.851 116.232 382.993 115.721 382.993 115.056V101.011ZM383.982 98.8288C383.59 98.8288 383.252 98.6953 382.968 98.4283C382.689 98.1612 382.55 97.8402 382.55 97.4652C382.55 97.0902 382.689 96.7692 382.968 96.5021C383.252 96.2351 383.59 96.1016 383.982 96.1016C384.374 96.1016 384.709 96.2351 384.988 96.5021C385.272 96.7692 385.414 97.0902 385.414 97.4652C385.414 97.8402 385.272 98.1612 384.988 98.4283C384.709 98.6953 384.374 98.8288 383.982 98.8288Z" fill="#737370"/>
<path d="M342.993 114.102V101.011H345.005V114.102H342.993ZM344.016 98.8288C343.624 98.8288 343.286 98.6953 343.002 98.4283C342.723 98.1612 342.584 97.8402 342.584 97.4652C342.584 97.0902 342.723 96.7692 343.002 96.5021C343.286 96.2351 343.624 96.1016 344.016 96.1016C344.408 96.1016 344.743 96.2351 345.022 96.5021C345.306 96.7692 345.448 97.0902 345.448 97.4652C345.448 97.8402 345.306 98.1612 345.022 98.4283C344.743 98.6953 344.408 98.8288 344.016 98.8288Z" fill="#737370"/>
<path d="M300.762 106.227V114.102H298.751V96.647H300.762V103.056H300.933C301.24 102.38 301.7 101.843 302.314 101.445C302.933 101.042 303.757 100.84 304.785 100.84C305.677 100.84 306.458 101.019 307.129 101.377C307.799 101.729 308.319 102.272 308.689 103.005C309.064 103.732 309.251 104.658 309.251 105.783V114.102H307.24V105.92C307.24 104.88 306.97 104.076 306.43 103.508C305.896 102.934 305.154 102.647 304.206 102.647C303.547 102.647 302.956 102.786 302.433 103.065C301.916 103.343 301.507 103.749 301.206 104.283C300.91 104.817 300.762 105.465 300.762 106.227Z" fill="#737370"/>
<path d="M263.812 117.283C262.841 117.283 262.006 117.158 261.307 116.908C260.608 116.664 260.026 116.34 259.56 115.937C259.099 115.539 258.733 115.113 258.46 114.658L260.062 113.533C260.244 113.772 260.474 114.045 260.753 114.352C261.031 114.664 261.412 114.934 261.895 115.161C262.384 115.394 263.023 115.511 263.812 115.511C264.869 115.511 265.741 115.255 266.429 114.744C267.116 114.232 267.46 113.431 267.46 112.34V109.681H267.29C267.142 109.92 266.932 110.215 266.659 110.567C266.392 110.914 266.006 111.224 265.5 111.496C265 111.763 264.324 111.897 263.472 111.897C262.415 111.897 261.466 111.647 260.625 111.147C259.79 110.647 259.128 109.92 258.639 108.965C258.156 108.011 257.915 106.852 257.915 105.488C257.915 104.147 258.151 102.979 258.622 101.985C259.094 100.985 259.75 100.212 260.591 99.6669C261.432 99.1158 262.403 98.8402 263.506 98.8402C264.358 98.8402 265.034 98.9822 265.534 99.2663C266.04 99.5447 266.426 99.8629 266.693 100.221C266.966 100.573 267.176 100.863 267.324 101.09H267.528V99.0107H269.472V112.477C269.472 113.602 269.216 114.516 268.705 115.221C268.199 115.931 267.517 116.451 266.659 116.781C265.807 117.116 264.858 117.283 263.812 117.283ZM263.744 110.09C264.551 110.09 265.233 109.906 265.79 109.536C266.347 109.167 266.77 108.636 267.06 107.942C267.349 107.249 267.494 106.42 267.494 105.454C267.494 104.511 267.352 103.678 267.068 102.957C266.784 102.235 266.364 101.67 265.807 101.261C265.25 100.852 264.563 100.647 263.744 100.647C262.892 100.647 262.182 100.863 261.614 101.295C261.051 101.727 260.628 102.306 260.344 103.033C260.065 103.761 259.926 104.567 259.926 105.454C259.926 106.363 260.068 107.167 260.352 107.866C260.642 108.559 261.068 109.104 261.631 109.502C262.199 109.894 262.903 110.09 263.744 110.09Z" fill="#737370"/>
<path d="M227.346 101.011V102.715H220.289V101.011H227.346ZM222.403 114.102V99.2038C222.403 98.4538 222.579 97.8288 222.931 97.3288C223.284 96.8288 223.741 96.4538 224.304 96.2038C224.866 95.9538 225.46 95.8288 226.085 95.8288C226.579 95.8288 226.983 95.8686 227.295 95.9482C227.608 96.0277 227.841 96.1016 227.994 96.1697L227.414 97.9084C227.312 97.8743 227.17 97.8317 226.988 97.7805C226.812 97.7294 226.579 97.7038 226.289 97.7038C225.625 97.7038 225.145 97.8714 224.849 98.2067C224.559 98.5419 224.414 99.0334 224.414 99.6811V114.102H222.403Z" fill="#737370"/>
<path d="M384.345 74.3743C383.084 74.3743 381.996 74.0959 381.081 73.5391C380.172 72.9766 379.47 72.1925 378.976 71.1868C378.487 70.1754 378.243 68.9993 378.243 67.6584C378.243 66.3175 378.487 65.1357 378.976 64.1129C379.47 63.0845 380.158 62.2834 381.038 61.7095C381.925 61.13 382.959 60.8402 384.141 60.8402C384.822 60.8402 385.496 60.9538 386.161 61.1811C386.825 61.4084 387.43 61.7777 387.976 62.2891C388.521 62.7947 388.956 63.4652 389.28 64.3004C389.604 65.1357 389.766 66.1641 389.766 67.3857V68.2379H379.675V66.4993H387.72C387.72 65.7607 387.572 65.1016 387.277 64.522C386.987 63.9425 386.572 63.4851 386.033 63.1499C385.499 62.8146 384.868 62.647 384.141 62.647C383.339 62.647 382.646 62.8459 382.061 63.2436C381.482 63.6357 381.036 64.147 380.723 64.7777C380.411 65.4084 380.254 66.0845 380.254 66.8061V67.9652C380.254 68.9538 380.425 69.7919 380.766 70.4794C381.112 71.1612 381.592 71.6811 382.206 72.0391C382.82 72.3913 383.533 72.5675 384.345 72.5675C384.874 72.5675 385.351 72.4936 385.777 72.3459C386.209 72.1925 386.581 71.9652 386.893 71.6641C387.206 71.3572 387.447 70.9766 387.618 70.522L389.561 71.0675C389.357 71.7266 389.013 72.3061 388.53 72.8061C388.047 73.3004 387.45 73.6868 386.74 73.9652C386.03 74.2379 385.232 74.3743 384.345 74.3743Z" fill="#737370"/>
<path d="M343.331 74.3743C342.24 74.3743 341.277 74.0987 340.442 73.5476C339.607 72.9908 338.953 72.2067 338.482 71.1953C338.01 70.1783 337.774 68.9766 337.774 67.5902C337.774 66.2152 338.01 65.022 338.482 64.0107C338.953 62.9993 339.609 62.218 340.45 61.6669C341.291 61.1158 342.263 60.8402 343.365 60.8402C344.217 60.8402 344.891 60.9822 345.385 61.2663C345.885 61.5447 346.266 61.8629 346.527 62.2209C346.794 62.5732 347.001 62.8629 347.149 63.0902H347.32V56.647H349.331V74.1016H347.388V72.0902H347.149C347.001 72.3288 346.791 72.63 346.518 72.9936C346.246 73.3516 345.857 73.6726 345.351 73.9567C344.845 74.2351 344.172 74.3743 343.331 74.3743ZM343.604 72.5675C344.411 72.5675 345.092 72.3572 345.649 71.9368C346.206 71.5107 346.629 70.9226 346.919 70.1726C347.209 69.4169 347.354 68.5447 347.354 67.5561C347.354 66.5788 347.212 65.7237 346.928 64.9908C346.643 64.2521 346.223 63.6783 345.666 63.2692C345.109 62.8544 344.422 62.647 343.604 62.647C342.751 62.647 342.041 62.8658 341.473 63.3033C340.911 63.7351 340.487 64.3232 340.203 65.0675C339.925 65.8061 339.786 66.6357 339.786 67.5561C339.786 68.4879 339.928 69.3345 340.212 70.0959C340.501 70.8516 340.928 71.4538 341.49 71.9027C342.058 72.3459 342.763 72.5675 343.604 72.5675Z" fill="#737370"/>
<path d="M304.456 74.3743C303.229 74.3743 302.172 74.0845 301.286 73.505C300.399 72.9254 299.717 72.1271 299.24 71.1101C298.763 70.093 298.524 68.9311 298.524 67.6243C298.524 66.2947 298.768 65.1214 299.257 64.1044C299.751 63.0817 300.439 62.2834 301.32 61.7095C302.206 61.13 303.24 60.8402 304.422 60.8402C305.342 60.8402 306.172 61.0107 306.911 61.3516C307.649 61.6925 308.254 62.1697 308.726 62.7834C309.197 63.397 309.49 64.1129 309.604 64.9311H307.592C307.439 64.3345 307.098 63.8061 306.57 63.3459C306.047 62.88 305.342 62.647 304.456 62.647C303.672 62.647 302.984 62.8516 302.393 63.2607C301.808 63.6641 301.351 64.2351 301.021 64.9737C300.697 65.7067 300.536 66.5675 300.536 67.5561C300.536 68.5675 300.695 69.4482 301.013 70.1982C301.337 70.9482 301.791 71.5305 302.376 71.9453C302.967 72.3601 303.661 72.5675 304.456 72.5675C304.979 72.5675 305.453 72.4766 305.879 72.2947C306.305 72.1129 306.666 71.8516 306.962 71.5107C307.257 71.1697 307.467 70.7607 307.592 70.2834H309.604C309.49 71.0561 309.209 71.7521 308.76 72.3714C308.317 72.9851 307.729 73.4737 306.996 73.8374C306.268 74.1953 305.422 74.3743 304.456 74.3743Z" fill="#737370"/>
<path d="M258.661 74.1016V56.647H260.672V63.0902H260.842C260.99 62.8629 261.195 62.5732 261.456 62.2209C261.723 61.8629 262.104 61.5447 262.598 61.2663C263.098 60.9822 263.774 60.8402 264.626 60.8402C265.729 60.8402 266.7 61.1158 267.541 61.6669C268.382 62.218 269.038 62.9993 269.51 64.0107C269.982 65.022 270.217 66.2152 270.217 67.5902C270.217 68.9766 269.982 70.1783 269.51 71.1953C269.038 72.2067 268.385 72.9908 267.55 73.5476C266.714 74.0987 265.751 74.3743 264.661 74.3743C263.82 74.3743 263.146 74.2351 262.641 73.9567C262.135 73.6726 261.746 73.3516 261.473 72.9936C261.2 72.63 260.99 72.3288 260.842 72.0902H260.604V74.1016H258.661ZM260.638 67.5561C260.638 68.5447 260.783 69.4169 261.072 70.1726C261.362 70.9226 261.786 71.5107 262.342 71.9368C262.899 72.3572 263.581 72.5675 264.388 72.5675C265.229 72.5675 265.93 72.3459 266.493 71.9027C267.061 71.4538 267.487 70.8516 267.771 70.0959C268.061 69.3345 268.206 68.4879 268.206 67.5561C268.206 66.6357 268.064 65.8061 267.78 65.0675C267.501 64.3232 267.078 63.7351 266.51 63.3033C265.947 62.8658 265.24 62.647 264.388 62.647C263.57 62.647 262.882 62.8544 262.325 63.2692C261.768 63.6783 261.348 64.2521 261.064 64.9908C260.78 65.7237 260.638 66.5788 260.638 67.5561Z" fill="#737370"/>
<path d="M3.84126 134.647V140.647H1.96626V134.647H3.84126ZM8.2049 134.647V140.647H6.3299V134.647H8.2049ZM17.1005 152.374C15.8732 152.374 14.8164 152.085 13.93 151.505C13.0437 150.925 12.3619 150.127 11.8846 149.11C11.4073 148.093 11.1687 146.931 11.1687 145.624C11.1687 144.295 11.413 143.121 11.9016 142.104C12.396 141.082 13.0835 140.283 13.9641 139.71C14.8505 139.13 15.8846 138.84 17.0664 138.84C17.9869 138.84 18.8164 139.011 19.555 139.352C20.2937 139.692 20.8988 140.17 21.3704 140.783C21.842 141.397 22.1346 142.113 22.2482 142.931H20.2369C20.0835 142.335 19.7425 141.806 19.2141 141.346C18.6914 140.88 17.9869 140.647 17.1005 140.647C16.3164 140.647 15.6289 140.852 15.038 141.261C14.4528 141.664 13.9954 142.235 13.6658 142.974C13.342 143.707 13.18 144.567 13.18 145.556C13.18 146.567 13.3391 147.448 13.6573 148.198C13.9812 148.948 14.4357 149.531 15.021 149.945C15.6119 150.36 16.305 150.567 17.1005 150.567C17.6232 150.567 18.0977 150.477 18.5238 150.295C18.9499 150.113 19.3107 149.852 19.6062 149.511C19.9016 149.17 20.1119 148.761 20.2369 148.283H22.2482C22.1346 149.056 21.8533 149.752 21.4045 150.371C20.9613 150.985 20.3732 151.474 19.6403 151.837C18.913 152.195 18.0664 152.374 17.1005 152.374ZM30.4727 157.283C29.5011 157.283 28.6658 157.158 27.967 156.908C27.2681 156.664 26.6857 156.34 26.2198 155.937C25.7596 155.539 25.3931 155.113 25.1204 154.658L26.7227 153.533C26.9045 153.772 27.1346 154.045 27.413 154.352C27.6914 154.664 28.0721 154.934 28.555 155.161C29.0437 155.394 29.6829 155.511 30.4727 155.511C31.5295 155.511 32.4016 155.255 33.0891 154.744C33.7766 154.232 34.1204 153.431 34.1204 152.34V149.681H33.9499C33.8022 149.92 33.592 150.215 33.3192 150.567C33.0522 150.914 32.6658 151.224 32.1602 151.496C31.6602 151.763 30.984 151.897 30.1317 151.897C29.0749 151.897 28.1261 151.647 27.2852 151.147C26.4499 150.647 25.788 149.92 25.2994 148.965C24.8164 148.011 24.5749 146.852 24.5749 145.488C24.5749 144.147 24.8107 142.979 25.2823 141.985C25.7539 140.985 26.4102 140.212 27.2511 139.667C28.092 139.116 29.0636 138.84 30.1658 138.84C31.0181 138.84 31.6942 138.982 32.1942 139.266C32.6999 139.545 33.0863 139.863 33.3533 140.221C33.6261 140.573 33.8363 140.863 33.984 141.09H34.1886V139.011H36.1317V152.477C36.1317 153.602 35.8761 154.516 35.3647 155.221C34.859 155.931 34.1772 156.451 33.3192 156.781C32.467 157.116 31.5181 157.283 30.4727 157.283ZM30.4045 150.09C31.2113 150.09 31.8931 149.906 32.4499 149.536C33.0067 149.167 33.43 148.636 33.7198 147.942C34.0096 147.249 34.1545 146.42 34.1545 145.454C34.1545 144.511 34.0124 143.678 33.7283 142.957C33.4442 142.235 33.0238 141.67 32.467 141.261C31.9102 140.852 31.2227 140.647 30.4045 140.647C29.5522 140.647 28.842 140.863 28.2738 141.295C27.7113 141.727 27.288 142.306 27.0039 143.033C26.7255 143.761 26.5863 144.567 26.5863 145.454C26.5863 146.363 26.7283 147.167 27.0124 147.866C27.3022 148.559 27.7283 149.104 28.2908 149.502C28.859 149.894 29.5636 150.09 30.4045 150.09ZM39.8136 152.102V139.011H41.8249V152.102H39.8136ZM40.8363 136.829C40.4442 136.829 40.1062 136.695 39.8221 136.428C39.5437 136.161 39.4045 135.84 39.4045 135.465C39.4045 135.09 39.5437 134.769 39.8221 134.502C40.1062 134.235 40.4442 134.102 40.8363 134.102C41.2283 134.102 41.5636 134.235 41.842 134.502C42.1261 134.769 42.2681 135.09 42.2681 135.465C42.2681 135.84 42.1261 136.161 41.842 136.428C41.5636 136.695 41.2283 136.829 40.8363 136.829ZM47.3839 147.329L47.3498 144.84H47.7589L53.4862 139.011H55.9748L49.8725 145.181H49.7021L47.3839 147.329ZM45.5089 152.102V134.647H47.5202V152.102H45.5089ZM53.8271 152.102L48.7134 145.624L50.1452 144.227L56.3839 152.102H53.8271ZM58.8363 134.647H61.359L67.2908 149.136H67.4954L73.4272 134.647H75.9499V152.102H73.9727V138.84H73.8022L68.3477 152.102H66.4386L60.984 138.84H60.8136V152.102H58.8363V134.647ZM85.2333 152.374C84.0515 152.374 83.0146 152.093 82.1225 151.531C81.2362 150.968 80.543 150.181 80.043 149.17C79.5487 148.158 79.3015 146.977 79.3015 145.624C79.3015 144.261 79.5487 143.07 80.043 142.053C80.543 141.036 81.2362 140.246 82.1225 139.684C83.0146 139.121 84.0515 138.84 85.2333 138.84C86.4151 138.84 87.4492 139.121 88.3356 139.684C89.2276 140.246 89.9208 141.036 90.4151 142.053C90.9151 143.07 91.1651 144.261 91.1651 145.624C91.1651 146.977 90.9151 148.158 90.4151 149.17C89.9208 150.181 89.2276 150.968 88.3356 151.531C87.4492 152.093 86.4151 152.374 85.2333 152.374ZM85.2333 150.567C86.131 150.567 86.8697 150.337 87.4492 149.877C88.0288 149.417 88.4577 148.812 88.7362 148.062C89.0146 147.312 89.1538 146.499 89.1538 145.624C89.1538 144.749 89.0146 143.934 88.7362 143.178C88.4577 142.423 88.0288 141.812 87.4492 141.346C86.8697 140.88 86.131 140.647 85.2333 140.647C84.3356 140.647 83.5969 140.88 83.0174 141.346C82.4379 141.812 82.0089 142.423 81.7305 143.178C81.4521 143.934 81.3129 144.749 81.3129 145.624C81.3129 146.499 81.4521 147.312 81.7305 148.062C82.0089 148.812 82.4379 149.417 83.0174 149.877C83.5969 150.337 84.3356 150.567 85.2333 150.567ZM103.167 157.011V150.09H102.997C102.849 150.329 102.639 150.63 102.366 150.994C102.093 151.352 101.704 151.673 101.199 151.957C100.693 152.235 100.02 152.374 99.1786 152.374C98.0877 152.374 97.1246 152.099 96.2894 151.548C95.4542 150.991 94.8008 150.207 94.3292 149.195C93.8576 148.178 93.6218 146.977 93.6218 145.59C93.6218 144.215 93.8576 143.022 94.3292 142.011C94.8008 140.999 95.457 140.218 96.2979 139.667C97.1388 139.116 98.1104 138.84 99.2127 138.84C100.065 138.84 100.738 138.982 101.233 139.266C101.733 139.545 102.113 139.863 102.375 140.221C102.642 140.573 102.849 140.863 102.997 141.09H103.235V139.011H105.179V157.011H103.167ZM99.4513 150.567C100.258 150.567 100.94 150.357 101.497 149.937C102.054 149.511 102.477 148.923 102.767 148.173C103.056 147.417 103.201 146.545 103.201 145.556C103.201 144.579 103.059 143.724 102.775 142.991C102.491 142.252 102.071 141.678 101.514 141.269C100.957 140.854 100.27 140.647 99.4513 140.647C98.5991 140.647 97.8888 140.866 97.3207 141.303C96.7582 141.735 96.3349 142.323 96.0508 143.067C95.7724 143.806 95.6332 144.636 95.6332 145.556C95.6332 146.488 95.7752 147.335 96.0593 148.096C96.3491 148.852 96.7752 149.454 97.3377 149.903C97.9059 150.346 98.6104 150.567 99.4513 150.567ZM118.133 141.942L116.326 142.454C116.213 142.153 116.045 141.86 115.824 141.576C115.608 141.286 115.312 141.048 114.937 140.86C114.562 140.673 114.082 140.579 113.497 140.579C112.696 140.579 112.028 140.763 111.494 141.133C110.966 141.496 110.701 141.96 110.701 142.522C110.701 143.022 110.883 143.417 111.247 143.707C111.61 143.996 112.179 144.238 112.951 144.431L114.895 144.908C116.065 145.192 116.937 145.627 117.511 146.212C118.085 146.792 118.372 147.539 118.372 148.454C118.372 149.204 118.156 149.874 117.724 150.465C117.298 151.056 116.701 151.522 115.934 151.863C115.167 152.204 114.275 152.374 113.258 152.374C111.923 152.374 110.818 152.085 109.943 151.505C109.068 150.925 108.514 150.079 108.281 148.965L110.19 148.488C110.372 149.192 110.716 149.721 111.221 150.073C111.733 150.425 112.4 150.602 113.224 150.602C114.162 150.602 114.906 150.403 115.457 150.005C116.014 149.602 116.292 149.119 116.292 148.556C116.292 148.102 116.133 147.721 115.815 147.414C115.497 147.102 115.008 146.869 114.349 146.715L112.167 146.204C110.968 145.92 110.088 145.479 109.525 144.883C108.968 144.281 108.69 143.528 108.69 142.624C108.69 141.886 108.897 141.232 109.312 140.664C109.733 140.096 110.304 139.65 111.025 139.326C111.752 139.002 112.576 138.84 113.497 138.84C114.792 138.84 115.809 139.124 116.548 139.692C117.292 140.261 117.821 141.011 118.133 141.942ZM124.365 152.102L120.377 139.011H122.49L125.32 149.033H125.456L128.252 139.011H130.4L133.161 148.999H133.297L136.127 139.011H138.24L134.252 152.102H132.275L129.411 142.045H129.206L126.343 152.102H124.365ZM142.638 134.647V140.647H140.763V134.647H142.638ZM147.002 134.647V140.647H145.127V134.647H147.002Z" fill="#006CA9"/>
<path d="M304.513 47.8897C304.987 47.6067 305.142 46.9928 304.859 46.5185L300.246 38.7905C299.963 38.3162 299.349 38.1612 298.875 38.4443C298.401 38.7274 298.246 39.3413 298.529 39.8155L302.629 46.6849L295.759 50.7851C295.285 51.0681 295.13 51.682 295.413 52.1563C295.696 52.6305 296.31 52.7855 296.784 52.5024L304.513 47.8897ZM18.6934 129.752C67.3429 82.9349 107.061 54.5822 150.336 41.87C193.597 29.1616 240.551 32.0449 303.755 48.0006L304.245 46.0615C240.886 30.0668 193.527 27.0979 149.772 39.9511C106.03 52.8004 66.0297 81.4229 17.3066 128.311L18.6934 129.752Z" fill="#82D1F5"/>
<path d="M292.448 136.001C292.942 135.754 293.142 135.153 292.895 134.659L288.868 126.611C288.621 126.117 288.02 125.917 287.526 126.164C287.032 126.411 286.832 127.012 287.079 127.505L290.659 134.66L283.504 138.24C283.01 138.487 282.81 139.087 283.057 139.581C283.305 140.075 283.905 140.275 284.399 140.028L292.448 136.001ZM76.2451 130.077C118.423 119.442 151.252 113.948 184.033 114.597C216.808 115.246 249.597 122.038 291.685 136.056L292.317 134.158C250.115 120.103 217.118 113.252 184.072 112.597C151.033 111.943 118.006 117.485 75.7561 128.137L76.2451 130.077Z" fill="#82D1F5"/>
<path d="M224.905 241.528C225.14 241.028 224.926 240.432 224.426 240.197L216.283 236.363C215.784 236.128 215.188 236.342 214.953 236.842C214.717 237.342 214.932 237.938 215.431 238.173L222.669 241.58L219.262 248.818C219.026 249.318 219.241 249.914 219.741 250.149C220.24 250.384 220.836 250.17 221.071 249.67L224.905 241.528ZM125.313 223.829C141.243 238.871 154.701 247.559 169.905 250.38C185.095 253.199 201.862 250.13 224.339 242.043L223.661 240.161C201.287 248.211 184.93 251.134 170.27 248.414C155.624 245.696 142.508 237.315 126.687 222.374L125.313 223.829Z" fill="#82D1F5"/>
<path d="M540.381 68.0137C540.892 67.8034 541.135 67.2189 540.925 66.7082L537.498 58.3863C537.287 57.8757 536.703 57.6322 536.192 57.8425C535.681 58.0528 535.438 58.6373 535.648 59.148L538.695 66.5452L531.298 69.5917C530.787 69.802 530.543 70.3865 530.754 70.8971C530.964 71.4078 531.549 71.6513 532.059 71.441L540.381 68.0137ZM304.17 48.0746C354.183 39.4715 392.177 35.7767 428.089 38.5637C463.988 41.3497 497.861 50.6176 539.616 68.0121L540.385 66.1659C498.499 48.7169 464.414 39.3768 428.244 36.5697C392.087 33.7636 353.901 37.4905 303.831 46.1035L304.17 48.0746Z" fill="#82D1F5"/>
<path d="M522.416 136.021C522.918 135.791 523.139 135.198 522.909 134.696L519.168 126.511C518.938 126.008 518.345 125.787 517.842 126.017C517.34 126.246 517.119 126.84 517.349 127.342L520.675 134.618L513.399 137.944C512.897 138.174 512.676 138.767 512.905 139.269C513.135 139.772 513.728 139.993 514.23 139.763L522.416 136.021ZM322.332 136.055C363.75 121.463 395.257 114.659 425.542 114.888C455.824 115.118 484.964 122.381 521.651 136.049L522.349 134.175C485.56 120.469 456.171 113.121 425.557 112.888C394.947 112.656 363.192 119.539 321.668 134.168L322.332 136.055Z" fill="#82D1F5"/>
<path d="M488.975 221.326C489.098 220.787 488.762 220.251 488.224 220.127L479.453 218.111C478.915 217.987 478.378 218.323 478.254 218.861C478.13 219.399 478.466 219.936 479.005 220.06L486.801 221.852L485.009 229.649C484.885 230.187 485.221 230.724 485.76 230.847C486.298 230.971 486.835 230.635 486.958 230.097L488.975 221.326ZM243.724 232.063C307.967 250.512 352.767 258.277 389.72 256.27C426.719 254.261 455.775 242.46 488.531 221.949L487.469 220.254C454.902 240.647 426.173 252.288 389.611 254.273C353.003 256.261 308.465 248.574 244.276 230.14L243.724 232.063Z" fill="#82D1F5"/>
</svg>
